<?xml version="1.0" encoding="UTF-8"?>
<svg id="chartChek" xmlns="http://www.w3.org/2000/svg" version="1.1" viewBox="0 0 1265 1265">
  <!-- Generator: Adobe Illustrator 29.4.0, SVG Export Plug-In . SVG Version: 2.1.0 Build 152)  -->
  <defs>
    <style>
      .st0 {
        fill: #004fa3;
      }
    </style>
  </defs>
  <path class="st0" d="M784.1,0C597.84,0,1.86-38.67,1.86,570.61c0,725.24,543.39,694.26,659.31,694.26,9.7,0,7.41-188.29-2.35-188.29-152.51,0-462.52-111.73-462.52-444.34,0-372.71,309.2-430.4,460.06-430.4"/>
  <path class="st0" d="M1251.23,186.53c-.09-.12-.19-.2-.3-.27C763.77-129.51,928.83-18.65,632.31,705.84c-69.25,169.21,20.13,216.43,30.71,218.51.72.13,1.39-.55,1.54-1.58,22.65-146.08-50.02-551.31-148.97-613.92-24.08-15.24-133.14,41.6-149.1,70.36-.5.9-1.27,1.26-1.16,2.43,7.44,74.01,188.67,274.51,174.11,570.74-.01.23,68.71,19.33,109.52,9.86,2.84-.66,5.69-1.05,7.67-4.12,14.91-23.02,71.67-135.89,154.96-344.23,177.19-443.26,318.88-454.29,387.88-431.84,1.84.6,44.27,20.66,46.13,21.51,19.77,9.11,24.46-4.87,5.63-17.02h0Z"/>
</svg>