<?xml version="1.0" encoding="utf-8"?>
<!-- Generator: Adobe Illustrator 29.4.0, SVG Export Plug-In . SVG Version: 9.03 Build 0)  -->
<svg version="1.0" id="Layer_1" xmlns="http://www.w3.org/2000/svg" xmlns:xlink="http://www.w3.org/1999/xlink" x="0px" y="0px"
	 viewBox="0 0 139 139" style="enable-background:new 0 0 139 139;" xml:space="preserve">
<style type="text/css">
	.st0{fill:#004FA3;}
</style>
<path class="st0" d="M85.24,24.51C64.72,24.51,0,21.58,0,67.11c0,54.19,61.27,51.87,74.04,51.87c1.07,0,1.13-4.21,1.07-6.09
	c-0.07-2.01-0.06-8.11-1.14-8.11c-15.3-0.12-57.86-0.96-57.86-37.38c0-28.81,48.69-27.88,63.21-27.88"/>
<path class="st0" d="M137.69,38.41c-0.01-0.01-0.02-0.01-0.03-0.02c-53.69-23.6-35.5-15.31-68.17,38.82
	c-7.63,12.64,2.22,16.17,3.38,16.33c0.08,0.01,0.15-0.04,0.17-0.12C75.53,82.51,60.91,55.32,50,50.64
	c-2.65-1.14-14.7,1.73-16.46,3.88c-0.05,0.07-0.14,0.09-0.13,0.18c0.82,5.53,27.43,18.8,25.83,40.94c0,0.02,7.57,1.44,12.07,0.74
	c0.31-0.05,0.63-0.08,0.85-0.31c1.64-1.72,7.9-10.15,17.08-25.72c19.53-33.12,35.14-33.95,42.75-32.27c0.2,0.04,4.88,1.54,5.08,1.61
	C139.24,40.36,139.76,39.32,137.69,38.41L137.69,38.41z"/>
</svg>
